HIERARCHY
ROOT Hips
{
	OFFSET -0.001795 -0.223333 0.028219
	CHANNELS 6 Xposition Yposition Zposition Zrotation Yrotation Xrotation 
	JOINT LeftUpLeg
	{
		OFFSET 0.069520 -0.091406 -0.006815
		CHANNELS 3 Zrotation Yrotation Xrotation
		JOINT LeftLeg
		{
			OFFSET 0.034277 -0.375199 -0.004496
			CHANNELS 3 Zrotation Yrotation Xrotation
			JOINT LeftFoot
			{
				OFFSET -0.013596 -0.397961 -0.043693
				CHANNELS 3 Zrotation Yrotation Xrotation
				JOINT LeftToe
				{
					OFFSET 0.026358 -0.055791 0.119288
					CHANNELS 3 Zrotation Yrotation Xrotation
					End Site
					{
						OFFSET 0.000000 0.000000 0.000000
					}
				}
			}
		}
	}
	JOINT RightUpLeg
	{
		OFFSET -0.067670 -0.090522 -0.004320
		CHANNELS 3 Zrotation Yrotation Xrotation
		JOINT RightLeg
		{
			OFFSET -0.038290 -0.382569 -0.008850
			CHANNELS 3 Zrotation Yrotation Xrotation
			JOINT RightFoot
			{
				OFFSET 0.015774 -0.398415 -0.042312
				CHANNELS 3 Zrotation Yrotation Xrotation
				JOINT RightToe
				{
					OFFSET -0.025372 -0.048144 0.123348
					CHANNELS 3 Zrotation Yrotation Xrotation
					End Site
					{
						OFFSET 0.000000 0.000000 0.000000
					}
				}
			}
		}
	}
	JOINT Spine
	{
		OFFSET -0.002533 0.108963 -0.026696
		CHANNELS 3 Zrotation Yrotation Xrotation
		JOINT Spine1
		{
			OFFSET 0.005487 0.135180 0.001092
			CHANNELS 3 Zrotation Yrotation Xrotation
			JOINT Spine2
			{
				OFFSET 0.001457 0.052922 0.025425
				CHANNELS 3 Zrotation Yrotation Xrotation
				JOINT Neck
				{
					OFFSET -0.002778 0.213870 -0.042857
					CHANNELS 3 Zrotation Yrotation Xrotation
					JOINT Head
					{
						OFFSET 0.005152 0.064970 0.051349
						CHANNELS 3 Zrotation Yrotation Xrotation
						End Site
						{
							OFFSET 0.000000 0.000000 0.000000
						}
					}
				}
				JOINT LeftShoulder
				{
					OFFSET 0.078845 0.121749 -0.034090
					CHANNELS 3 Zrotation Yrotation Xrotation
					JOINT LeftArm
					{
						OFFSET 0.090977 0.030469 -0.008868
						CHANNELS 3 Zrotation Yrotation Xrotation
						JOINT LeftForeArm
						{
							OFFSET 0.259612 -0.012772 -0.027456
							CHANNELS 3 Zrotation Yrotation Xrotation
							JOINT LeftHand
							{
								OFFSET 0.249234 0.008986 -0.001171
								CHANNELS 3 Zrotation Yrotation Xrotation
								End Site
								{
									OFFSET 0.000000 0.000000 0.000000
								}
							}
						}
					}
				}
				JOINT RightShoulder
				{
					OFFSET -0.081759 0.118833 -0.038615
					CHANNELS 3 Zrotation Yrotation Xrotation
					JOINT RightArm
					{
						OFFSET -0.096012 0.032551 -0.009143
						CHANNELS 3 Zrotation Yrotation Xrotation
						JOINT RightForeArm
						{
							OFFSET -0.253742 -0.013329 -0.021401
							CHANNELS 3 Zrotation Yrotation Xrotation
							JOINT RightHand
							{
								OFFSET -0.255298 0.007772 -0.005559
								CHANNELS 3 Zrotation Yrotation Xrotation
								End Site
								{
									OFFSET 0.000000 0.000000 0.000000
								}
							}
						}
					}
				}
			}
		}
	}
}
MOTION
Frames: 10
Frame Time: 0.050000
-0.031933 0.944237 0.089542 -5.135960 37.906408 14.019967 17.735064 -3.558802 -33.559974 -1.041452 -0.865991 12.466947 -3.183107 4.546717 13.736062 0.000000 0.000000 0.000000 2.103946 0.355294 -30.587711 -2.745236 0.374864 11.092906 -3.557029 -6.607984 12.125787 0.000000 0.000000 0.000000 0.585811 -2.315282 19.174697 -0.873313 0.645829 -4.328051 -8.792636 7.772552 15.023813 9.782900 -8.554599 0.831200 0.000000 0.000000 0.000000 1.040227 13.833176 -4.464380 -51.583905 -4.411867 -7.338059 -168.687644 -46.636619 146.406424 0.000000 0.000000 0.000000 4.353278 -19.952155 -8.374769 46.791461 -18.968979 -8.108362 139.692792 48.799135 128.643473 0.000000 0.000000 0.000000 
-0.031533 0.944743 0.091524 -5.681950 39.110725 14.203615 18.469893 -3.737189 -34.396961 -0.955195 -0.898217 12.538987 -3.736740 3.684339 13.701355 0.000000 0.000000 0.000000 2.523350 0.288156 -31.313056 -2.513298 0.271379 11.670200 -4.358692 -8.067463 11.467197 0.000000 0.000000 0.000000 0.077423 -2.320990 19.563225 -1.055779 0.763427 -4.830519 -8.425378 7.916284 15.590589 9.533710 -8.558687 1.262809 0.000000 0.000000 0.000000 2.135867 15.745835 -4.542619 -52.905736 -4.157026 -8.143869 -167.969936 -45.602847 144.622962 0.000000 0.000000 0.000000 3.504196 -21.190565 -8.989658 47.034519 -19.317635 -7.947533 140.395255 48.525922 130.182122 0.000000 0.000000 0.000000 
-0.030643 0.945123 0.092974 -6.003738 40.788162 14.438412 18.867791 -4.067065 -35.528106 -0.866784 -0.949927 12.687908 -4.134470 3.010207 13.482251 0.000000 0.000000 0.000000 2.477214 0.006994 -32.101097 -1.963652 0.051492 12.363512 -4.764432 -8.754694 10.820794 0.000000 0.000000 0.000000 -0.303923 -2.346276 19.790640 -0.803564 0.678589 -4.926815 -8.420368 7.890995 15.921477 8.471446 -7.996508 2.085372 0.000000 0.000000 0.000000 2.526876 17.474263 -4.907812 -53.908449 -4.122143 -8.674016 -168.270187 -44.807688 145.513824 0.000000 0.000000 0.000000 3.328608 -22.153329 -9.471968 47.442159 -19.980327 -7.970872 141.397958 48.958804 133.073444 0.000000 0.000000 0.000000 
-0.029509 0.944689 0.093523 -6.498165 42.187497 14.695056 19.290080 -4.423668 -37.015116 -0.928086 -1.069645 13.618979 -4.582166 1.918820 12.949244 0.000000 0.000000 0.000000 2.544270 -0.236000 -32.941811 -1.225481 -0.264614 13.451081 -5.475120 -10.174725 9.826434 0.000000 0.000000 0.000000 -0.544984 -2.374309 19.918920 -1.669066 1.001462 -5.046600 -7.496852 8.127199 16.370640 7.990961 -7.576216 2.125306 0.000000 0.000000 0.000000 3.034848 19.025229 -5.181723 -55.054723 -3.914165 -9.357292 -167.886884 -44.418473 144.867875 0.000000 0.000000 0.000000 2.622133 -23.273034 -10.030409 48.619803 -20.937795 -8.055487 142.382842 49.710632 136.196019 0.000000 0.000000 0.000000 
-0.028325 0.943920 0.092977 -6.683520 43.631481 14.966041 19.904455 -4.805387 -38.555440 -1.750862 -1.072587 14.476561 -4.407686 2.128791 12.733441 0.000000 0.000000 0.000000 2.334252 -0.664110 -34.142536 -0.626508 -0.624275 15.000317 -5.790926 -10.838115 8.998252 0.000000 0.000000 0.000000 -0.969486 -2.484582 20.641305 -1.336227 0.905578 -5.306952 -7.521745 8.793018 16.841911 7.345332 -7.328404 2.744256 0.000000 0.000000 0.000000 2.464888 19.854100 -5.841431 -55.465692 -4.291453 -9.416512 -168.739017 -44.017967 147.167535 0.000000 0.000000 0.000000 2.843753 -23.442841 -10.143788 50.245563 -21.570866 -8.245792 142.179487 51.176111 138.367216 0.000000 0.000000 0.000000 
-0.027458 0.942031 0.091573 -6.805310 44.977720 16.050047 20.692501 -5.294467 -40.920464 -2.337107 -1.150920 15.758489 -4.306774 1.944819 12.263322 0.000000 0.000000 0.000000 1.914456 -1.380683 -36.523090 0.323638 -1.170850 17.014640 -6.328042 -11.917913 8.498073 0.000000 0.000000 0.000000 -1.201687 -2.599148 21.135732 -1.729314 1.088321 -5.876713 -6.845389 9.820926 17.823997 7.848496 -7.090058 1.335016 0.000000 0.000000 0.000000 2.415820 20.709939 -6.319424 -56.613320 -5.000610 -9.708640 -168.421725 -43.249067 146.541736 0.000000 0.000000 0.000000 2.076454 -24.512915 -10.732213 52.468222 -22.458752 -8.198148 141.376752 52.058194 139.118277 0.000000 0.000000 0.000000 
-0.026556 0.939078 0.090093 -7.007769 46.115407 16.764707 22.268858 -5.707043 -43.434046 -4.130671 -1.047703 17.271731 -3.739207 2.839808 12.180455 0.000000 0.000000 0.000000 1.993116 -1.990336 -38.781653 0.599675 -1.650980 19.715089 -6.230969 -11.910725 7.322202 0.000000 0.000000 0.000000 -1.659102 -2.765504 22.128657 -1.646060 1.045966 -5.839490 -6.606946 10.594101 18.329841 7.781656 -6.967014 1.181337 0.000000 0.000000 0.000000 1.329752 21.703588 -7.466071 -56.614912 -5.152747 -9.560093 -169.218747 -43.348747 149.130318 0.000000 0.000000 0.000000 2.070005 -24.255940 -10.641478 54.619724 -22.651792 -8.256306 140.478899 53.717971 140.127873 0.000000 0.000000 0.000000 
-0.025273 0.934382 0.089157 -7.038607 47.068099 18.003862 23.795177 -6.145790 -46.389153 -5.694832 -0.959974 19.006766 -3.114987 3.622927 11.821628 0.000000 0.000000 0.000000 1.582301 -2.893499 -41.391959 1.336725 -2.328765 22.340927 -6.198533 -12.024780 6.235959 0.000000 0.000000 0.000000 -2.095169 -2.905585 22.989755 -2.001586 1.119248 -5.575898 -6.040031 11.754937 18.529707 8.069238 -6.750389 0.273293 0.000000 0.000000 0.000000 -0.767631 21.790857 -9.055917 -56.112584 -5.531228 -8.876136 -170.216389 -43.434082 152.112529 0.000000 0.000000 0.000000 1.180196 -25.032471 -11.083669 57.045099 -23.101574 -7.974543 140.368519 55.020026 141.901333 0.000000 0.000000 0.000000 
-0.023077 0.928236 0.089269 -7.327806 48.083302 18.819148 25.454393 -6.523371 -49.094884 -7.383636 -0.851541 21.094802 -2.222785 4.622612 10.978263 0.000000 0.000000 0.000000 1.760693 -3.601158 -43.709939 1.110952 -2.668126 24.839476 -5.659806 -11.155364 4.711219 0.000000 0.000000 0.000000 -2.484745 -3.128263 24.065946 -1.925160 1.028875 -5.119419 -5.523985 12.527952 18.538012 8.114158 -6.861498 0.395991 0.000000 0.000000 0.000000 -2.758856 22.620312 -10.877202 -55.168593 -5.375072 -8.352925 -170.368005 -43.345540 153.293243 0.000000 0.000000 0.000000 1.122568 -24.851317 -11.024439 59.656741 -22.462523 -7.628661 141.222760 56.574781 145.257387 0.000000 0.000000 0.000000 
-0.020099 0.920361 0.090253 -7.488237 48.914423 18.975538 26.002529 -6.919354 -50.847574 -8.199897 -0.899360 23.062056 -1.609356 5.138618 10.015911 0.000000 0.000000 0.000000 1.831836 -4.222983 -45.324201 1.035181 -3.220867 27.782180 -5.583813 -11.171468 3.541527 0.000000 0.000000 0.000000 -3.109940 -3.379401 25.494877 -1.945589 1.003731 -4.875792 -5.067097 13.977950 18.172963 8.522793 -7.292291 0.456514 0.000000 0.000000 0.000000 -4.377403 22.404707 -12.125839 -53.618520 -5.120424 -7.711643 -170.497902 -43.357468 153.597423 0.000000 0.000000 0.000000 -0.666777 -24.884327 -11.159810 62.566040 -22.680613 -6.901246 143.902605 57.993388 151.305874 0.000000 0.000000 0.000000 
